<svg class="diagram-root" style="background: #f5f6f6" xmlns="http://www.w3.org/2000/svg" xmlns:xlink="http://www.w3.org/1999/xlink"><style>.diagram-root { font-family: "Helvetica Neue", sans-serif; font-size: 12px; } .t { overflow: visible; } .t-bg { y: 40; fill: #fff;   } .th { fill: #005aa0;   } .tht { fill: #fff; font-size: 14px;  } .tf { fill: #323c46; overflow: visible; } .tf.pk { fill: #005aa0; font-weight: bold; } .tf.fk { font-weight: bold; } .ty { fill: #adb1b5; font-weight: normal; text-anchor: end; } .r { fill: transparent; stroke: #c3c3c3; stroke-width: 1; } .l { stroke: 1; } .i { fill: #c2c7ce; stroke: #c2c7ce; } .i.ix { fill: #afb3b6; stroke: #000; } .fa { fill: transparent; overflow: visible; } .fa .bg.hover { fill: #f7f7f7; } .c { cy: 12; r: 4; stroke: #d2d2dc; fill: #d2d2dc; } .hr { fill: transparent; stroke: #323c46; stroke-opacity: 0.035; stroke-width: 13; } .dc { stroke: #fa5a3c; fill: #fa5a3c; } .x { stroke: white; stroke-width: 1; } .hl .th { fill: #1b9bff; } .hl .tht {  } .fhl .bg { fill: #e7f4ff; } .fhls .bg {  } .r.hl { stroke: #1b9bff; } .dim { opacity: 0.25; }</style><g class="drawing-wrapper" transform="translate(33.1111111111111, 26.666666666666664) scale(1,1)"><g class="rs"><path d="M 151.62 85.33 m -1, 0 a 1,1 0 1,0 2,0 a 1,1 0 1,0 -2,0 M 151.62 85.33 m -0.5, 0 a 0.5,0.5 0 1,0 1,0 a 0.5,0.5 0 1,0 -1,0  M151.62 85.33 L151.62 85.33 163.62 85.33 M 151.62 91.33 m -1, 0 a 1,1 0 1,0 2,0 a 1,1 0 1,0 -2,0 M 151.62 91.33 m -0.5, 0 a 0.5,0.5 0 1,0 1,0 a 0.5,0.5 0 1,0 -1,0  M151.62 91.33 L151.62 91.33 158.62 85.33 151.62 79.33 M 151.62 79.33 m -1, 0 a 1,1 0 1,0 2,0 a 1,1 0 1,0 -2,0 M 151.62 79.33 m -0.5, 0 a 0.5,0.5 0 1,0 1,0 a 0.5,0.5 0 1,0 -1,0  M163.62 85.33 Q 188.81 85.33, 214 92.07 T 264.37 98.82 M 276.37 98.82 m -1, 0 a 1,1 0 1,0 2,0 a 1,1 0 1,0 -2,0 M 276.37 98.82 m -0.5, 0 a 0.5,0.5 0 1,0 1,0 a 0.5,0.5 0 1,0 -1,0  M276.37 98.82 L276.37 98.82 264.37 98.82 M270.37 104.82 L270.37 104.82 270.37 92.82" id="h2535306509" class="r"></path><path d="M 151.62 110.33 m -1, 0 a 1,1 0 1,0 2,0 a 1,1 0 1,0 -2,0 M 151.62 110.33 m -0.5, 0 a 0.5,0.5 0 1,0 1,0 a 0.5,0.5 0 1,0 -1,0  M151.62 110.33 L151.62 110.33 163.62 110.33 M 151.62 116.33 m -1, 0 a 1,1 0 1,0 2,0 a 1,1 0 1,0 -2,0 M 151.62 116.33 m -0.5, 0 a 0.5,0.5 0 1,0 1,0 a 0.5,0.5 0 1,0 -1,0  M151.62 116.33 L151.62 116.33 158.62 110.33 151.62 104.33 M 151.62 104.33 m -1, 0 a 1,1 0 1,0 2,0 a 1,1 0 1,0 -2,0 M 151.62 104.33 m -0.5, 0 a 0.5,0.5 0 1,0 1,0 a 0.5,0.5 0 1,0 -1,0  M163.62 110.33 Q 188.81 110.33, 214 104.57 T 264.37 98.82 M 276.37 98.82 m -1, 0 a 1,1 0 1,0 2,0 a 1,1 0 1,0 -2,0 M 276.37 98.82 m -0.5, 0 a 0.5,0.5 0 1,0 1,0 a 0.5,0.5 0 1,0 -1,0  M276.37 98.82 L276.37 98.82 264.37 98.82 M270.37 104.82 L270.37 104.82 270.37 92.82" id="h2036108234" class="r"></path><path d="M 680.59 90 m -1, 0 a 1,1 0 1,0 2,0 a 1,1 0 1,0 -2,0 M 680.59 90 m -0.5, 0 a 0.5,0.5 0 1,0 1,0 a 0.5,0.5 0 1,0 -1,0  M680.59 90 L680.59 90 692.59 90 M 680.59 96 m -1, 0 a 1,1 0 1,0 2,0 a 1,1 0 1,0 -2,0 M 680.59 96 m -0.5, 0 a 0.5,0.5 0 1,0 1,0 a 0.5,0.5 0 1,0 -1,0  M680.59 96 L680.59 96 687.59 90 680.59 84 M 680.59 84 m -1, 0 a 1,1 0 1,0 2,0 a 1,1 0 1,0 -2,0 M 680.59 84 m -0.5, 0 a 0.5,0.5 0 1,0 1,0 a 0.5,0.5 0 1,0 -1,0  M692.59 90 C 742.59 90, 754.32 273, 673.04 273 M 661.04 273 m -1, 0 a 1,1 0 1,0 2,0 a 1,1 0 1,0 -2,0 M 661.04 273 m -0.5, 0 a 0.5,0.5 0 1,0 1,0 a 0.5,0.5 0 1,0 -1,0  M661.04 273 L661.04 273 673.04 273 M667.04 279 L667.04 279 667.04 267" id="h3016524893" class="r"></path><path d="M 548 115 m -1, 0 a 1,1 0 1,0 2,0 a 1,1 0 1,0 -2,0 M 548 115 m -0.5, 0 a 0.5,0.5 0 1,0 1,0 a 0.5,0.5 0 1,0 -1,0  M548 115 L548 115 536 115 M 548 121 m -1, 0 a 1,1 0 1,0 2,0 a 1,1 0 1,0 -2,0 M 548 121 m -0.5, 0 a 0.5,0.5 0 1,0 1,0 a 0.5,0.5 0 1,0 -1,0  M548 121 L548 121 541 115 548 109 M 548 109 m -1, 0 a 1,1 0 1,0 2,0 a 1,1 0 1,0 -2,0 M 548 109 m -0.5, 0 a 0.5,0.5 0 1,0 1,0 a 0.5,0.5 0 1,0 -1,0  M536 115 Q 507.61 115, 479.21 106.91 T 422.41 98.82 M 410.41 98.82 m -1, 0 a 1,1 0 1,0 2,0 a 1,1 0 1,0 -2,0 M 410.41 98.82 m -0.5, 0 a 0.5,0.5 0 1,0 1,0 a 0.5,0.5 0 1,0 -1,0  M410.41 98.82 L410.41 98.82 422.41 98.82 M416.41 104.82 L416.41 104.82 416.41 92.82" id="h2555307750" class="r"></path><path d="M 408.36 324 m -1, 0 a 1,1 0 1,0 2,0 a 1,1 0 1,0 -2,0 M 408.36 324 m -0.5, 0 a 0.5,0.5 0 1,0 1,0 a 0.5,0.5 0 1,0 -1,0  M408.36 324 L408.36 324 420.36 324 M 408.36 330 m -1, 0 a 1,1 0 1,0 2,0 a 1,1 0 1,0 -2,0 M 408.36 330 m -0.5, 0 a 0.5,0.5 0 1,0 1,0 a 0.5,0.5 0 1,0 -1,0  M408.36 330 L408.36 330 415.36 324 408.36 318 M 408.36 318 m -1, 0 a 1,1 0 1,0 2,0 a 1,1 0 1,0 -2,0 M 408.36 318 m -0.5, 0 a 0.5,0.5 0 1,0 1,0 a 0.5,0.5 0 1,0 -1,0  M420.36 324 Q 441.52 324, 462.68 298.5 T 505 273 M 517 273 m -1, 0 a 1,1 0 1,0 2,0 a 1,1 0 1,0 -2,0 M 517 273 m -0.5, 0 a 0.5,0.5 0 1,0 1,0 a 0.5,0.5 0 1,0 -1,0  M517 273 L517 273 505 273 M511 279 L511 279 511 267" id="h1614346022" class="r"></path><path d="M 279 349 m -1, 0 a 1,1 0 1,0 2,0 a 1,1 0 1,0 -2,0 M 279 349 m -0.5, 0 a 0.5,0.5 0 1,0 1,0 a 0.5,0.5 0 1,0 -1,0  M279 349 L279 349 267 349 M 279 355 m -1, 0 a 1,1 0 1,0 2,0 a 1,1 0 1,0 -2,0 M 279 355 m -0.5, 0 a 0.5,0.5 0 1,0 1,0 a 0.5,0.5 0 1,0 -1,0  M279 355 L279 355 272 349 279 343 M 279 343 m -1, 0 a 1,1 0 1,0 2,0 a 1,1 0 1,0 -2,0 M 279 343 m -0.5, 0 a 0.5,0.5 0 1,0 1,0 a 0.5,0.5 0 1,0 -1,0  M267 349 Q 248.68 349, 230.36 371.5 T 193.71 394 M 181.71 394 m -1, 0 a 1,1 0 1,0 2,0 a 1,1 0 1,0 -2,0 M 181.71 394 m -0.5, 0 a 0.5,0.5 0 1,0 1,0 a 0.5,0.5 0 1,0 -1,0  M181.71 394 L181.71 394 193.71 394 M187.71 400 L187.71 400 187.71 388" id="h3136039752" class="r"></path></g><g class="hrs"></g><g class="ts"><svg width="134.04" height="175" x="276.37" y="41.82" id="h2948373614" class="t"><rect height="40" width="134.04" class="th"></rect><text x="13" y="25" class="tht">users</text><rect height="135" width="134.04" class="t-bg"></rect><text x="13" y="61" class="tf pk">user_id<tspan x="121.03999999999999" class="ty">bigint</tspan></text><path d="M7,14A2,2 0 0,1 5,12A2,2 0 0,1 7,10A2,2 0 0,1 9,12A2,2 0 0,1 7,14M12.65,10C11.83,7.67 9.61,6 7, 6A6, 6 0 0, 0 1, 12A6, 6 0 0, 0 7, 18C9.61, 18 11.83, 16.33 12.65, 14H17V18H21V14H23V10H12.65Z" class="i pk" transform="translate(72.35249999999999, 48) scale(0.65)"></path><text x="13" y="86" class="tf">login<tspan x="121.03999999999999" class="ty">varchar</tspan></text><text x="13" y="111" class="tf">name<tspan x="121.03999999999999" class="ty">varchar</tspan></text><text x="13" y="136" class="tf">email<tspan x="121.03999999999999" class="ty">varchar</tspan></text><text x="13" y="161" class="tf">birthday<tspan x="121.03999999999999" class="ty">date</tspan></text></svg><svg width="162.73" height="150" x="-11.11" y="3.33" id="h3152839263" class="t"><rect height="40" width="162.73" class="th"></rect><text x="13" y="25" class="tht">users_friends</text><rect height="110" width="162.73" class="t-bg"></rect><text x="13" y="61" class="tf pk">friendship_id<tspan x="149.73" class="ty">bigint</tspan></text><path d="M7,14A2,2 0 0,1 5,12A2,2 0 0,1 7,10A2,2 0 0,1 9,12A2,2 0 0,1 7,14M12.65,10C11.83,7.67 9.61,6 7, 6A6, 6 0 0, 0 1, 12A6, 6 0 0, 0 7, 18C9.61, 18 11.83, 16.33 12.65, 14H17V18H21V14H23V10H12.65Z" class="i pk" transform="translate(101.04249999999999, 48) scale(0.65)"></path><text x="13" y="86" class="tf fk">user_id<tspan x="149.73" class="ty">bigint</tspan></text><text x="13" y="111" class="tf fk">friend_id<tspan x="149.73" class="ty">bigint</tspan></text><text x="13" y="136" class="tf">status<tspan x="149.73" class="ty">varchar</tspan></text></svg><svg width="132.59" height="150" x="548" y="8" id="h1051182743" class="t"><rect height="40" width="132.59" class="th"></rect><text x="13" y="25" class="tht">films_users_likes</text><rect height="110" width="132.59" class="t-bg"></rect><text x="13" y="61" class="tf pk">like_id<tspan x="119.59" class="ty">bigint</tspan></text><path d="M7,14A2,2 0 0,1 5,12A2,2 0 0,1 7,10A2,2 0 0,1 9,12A2,2 0 0,1 7,14M12.65,10C11.83,7.67 9.61,6 7, 6A6, 6 0 0, 0 1, 12A6, 6 0 0, 0 7, 18C9.61, 18 11.83, 16.33 12.65, 14H17V18H21V14H23V10H12.65Z" class="i pk" transform="translate(70.9025, 48) scale(0.65)"></path><text x="13" y="86" class="tf fk">film_id<tspan x="119.59" class="ty">bigint</tspan></text><text x="13" y="111" class="tf fk">user_id<tspan x="119.59" class="ty">bigint</tspan></text><text x="13" y="136" class="tf">like<tspan x="119.59" class="ty">int</tspan></text></svg><svg width="144.04" height="200" x="517" y="216" id="h907613820" class="t"><rect height="40" width="144.04" class="th"></rect><text x="13" y="25" class="tht">films</text><rect height="160" width="144.04" class="t-bg"></rect><text x="13" y="61" class="tf pk">film_id<tspan x="131.04" class="ty">bigint</tspan></text><path d="M7,14A2,2 0 0,1 5,12A2,2 0 0,1 7,10A2,2 0 0,1 9,12A2,2 0 0,1 7,14M12.65,10C11.83,7.67 9.61,6 7, 6A6, 6 0 0, 0 1, 12A6, 6 0 0, 0 7, 18C9.61, 18 11.83, 16.33 12.65, 14H17V18H21V14H23V10H12.65Z" class="i pk" transform="translate(82.35249999999999, 48) scale(0.65)"></path><text x="13" y="86" class="tf">name<tspan x="131.04" class="ty">varchar</tspan></text><text x="13" y="111" class="tf">description<tspan x="131.04" class="ty">varchar</tspan></text><text x="13" y="136" class="tf">release_date<tspan x="131.04" class="ty">date</tspan></text><text x="13" y="161" class="tf">duration<tspan x="131.04" class="ty">int</tspan></text><text x="13" y="186" class="tf">rating<tspan x="131.04" class="ty">varchar</tspan></text></svg><svg width="140.71" height="100" x="41" y="337" id="h2129794260" class="t"><rect height="40" width="140.71" class="th"></rect><text x="13" y="25" class="tht">categories</text><rect height="60" width="140.71" class="t-bg"></rect><text x="13" y="61" class="tf pk">category_id<tspan x="127.71000000000001" class="ty">int</tspan></text><path d="M7,14A2,2 0 0,1 5,12A2,2 0 0,1 7,10A2,2 0 0,1 9,12A2,2 0 0,1 7,14M12.65,10C11.83,7.67 9.61,6 7, 6A6, 6 0 0, 0 1, 12A6, 6 0 0, 0 7, 18C9.61, 18 11.83, 16.33 12.65, 14H17V18H21V14H23V10H12.65Z" class="i pk" transform="translate(95.03617187500001, 48) scale(0.65)"></path><text x="13" y="86" class="tf">name<tspan x="127.71000000000001" class="ty">varchar</tspan></text></svg><svg width="129.36" height="100" x="279" y="267" id="h1864890301" class="t"><rect height="40" width="129.36" class="th"></rect><text x="13" y="25" class="tht">films_categories</text><rect height="60" width="129.36" class="t-bg"></rect><text x="13" y="61" class="tf pk">film_id<tspan x="116.36000000000001" class="ty">bigint</tspan></text><path d="M7,14A2,2 0 0,1 5,12A2,2 0 0,1 7,10A2,2 0 0,1 9,12A2,2 0 0,1 7,14M12.65,10C11.83,7.67 9.61,6 7, 6A6, 6 0 0, 0 1, 12A6, 6 0 0, 0 7, 18C9.61, 18 11.83, 16.33 12.65, 14H17V18H21V14H23V10H12.65Z" class="i pk" transform="translate(67.67250000000001, 48) scale(0.65)"></path><text x="13" y="86" class="tf fk">category_id<tspan x="116.36000000000001" class="ty">int</tspan></text></svg></g></g><text class="qdbd-link" x="10" y="20">www.quickdatabasediagrams.com</text></svg>