<svg class="diagram-root" style="background: #f5f6f6" xmlns="http://www.w3.org/2000/svg" xmlns:xlink="http://www.w3.org/1999/xlink"><style>.diagram-root { font-family: "Helvetica Neue", sans-serif; font-size: 12px; } .t { overflow: visible; } .t-bg { y: 40; fill: #fff;   } .th { fill: #005aa0;   } .tht { fill: #fff; font-size: 14px;  } .tf { fill: #323c46; overflow: visible; } .tf.pk { fill: #005aa0; font-weight: bold; } .tf.fk { font-weight: bold; } .ty { fill: #adb1b5; font-weight: normal; text-anchor: end; } .r { fill: transparent; stroke: #c3c3c3; stroke-width: 1; } .l { stroke: 1; } .i { fill: #c2c7ce; stroke: #c2c7ce; } .i.ix { fill: #afb3b6; stroke: #000; } .fa { fill: transparent; overflow: visible; } .fa .bg.hover { fill: #f7f7f7; } .c { cy: 12; r: 4; stroke: #d2d2dc; fill: #d2d2dc; } .hr { fill: transparent; stroke: #323c46; stroke-opacity: 0.035; stroke-width: 13; } .dc { stroke: #fa5a3c; fill: #fa5a3c; } .x { stroke: white; stroke-width: 1; } .hl .th { fill: #1b9bff; } .hl .tht {  } .fhl .bg { fill: #e7f4ff; } .fhls .bg {  } .r.hl { stroke: #1b9bff; } .dim { opacity: 0.25; }</style><g class="drawing-wrapper" transform="translate(33.1111111111111, 26.666666666666664) scale(1,1)"><g class="rs"><path d="M 151.62 85.33 m -1, 0 a 1,1 0 1,0 2,0 a 1,1 0 1,0 -2,0 M 151.62 85.33 m -0.5, 0 a 0.5,0.5 0 1,0 1,0 a 0.5,0.5 0 1,0 -1,0  M151.62 85.33 L151.62 85.33 163.62 85.33 M 151.62 91.33 m -1, 0 a 1,1 0 1,0 2,0 a 1,1 0 1,0 -2,0 M 151.62 91.33 m -0.5, 0 a 0.5,0.5 0 1,0 1,0 a 0.5,0.5 0 1,0 -1,0  M151.62 91.33 L151.62 91.33 158.62 85.33 151.62 79.33 M 151.62 79.33 m -1, 0 a 1,1 0 1,0 2,0 a 1,1 0 1,0 -2,0 M 151.62 79.33 m -0.5, 0 a 0.5,0.5 0 1,0 1,0 a 0.5,0.5 0 1,0 -1,0  M163.62 85.33 Q 187.9 85.33, 212.18 73.9 T 260.73 62.46 M 272.73 62.46 m -1, 0 a 1,1 0 1,0 2,0 a 1,1 0 1,0 -2,0 M 272.73 62.46 m -0.5, 0 a 0.5,0.5 0 1,0 1,0 a 0.5,0.5 0 1,0 -1,0  M272.73 62.46 L272.73 62.46 260.73 62.46 M266.73 68.46000000000001 L266.73 68.46000000000001 266.73 56.46" id="h2535306509" class="r"></path><path d="M 151.62 110.33 m -1, 0 a 1,1 0 1,0 2,0 a 1,1 0 1,0 -2,0 M 151.62 110.33 m -0.5, 0 a 0.5,0.5 0 1,0 1,0 a 0.5,0.5 0 1,0 -1,0  M151.62 110.33 L151.62 110.33 163.62 110.33 M 151.62 116.33 m -1, 0 a 1,1 0 1,0 2,0 a 1,1 0 1,0 -2,0 M 151.62 116.33 m -0.5, 0 a 0.5,0.5 0 1,0 1,0 a 0.5,0.5 0 1,0 -1,0  M151.62 116.33 L151.62 116.33 158.62 110.33 151.62 104.33 M 151.62 104.33 m -1, 0 a 1,1 0 1,0 2,0 a 1,1 0 1,0 -2,0 M 151.62 104.33 m -0.5, 0 a 0.5,0.5 0 1,0 1,0 a 0.5,0.5 0 1,0 -1,0  M163.62 110.33 Q 187.9 110.33, 212.18 86.4 T 260.73 62.46 M 272.73 62.46 m -1, 0 a 1,1 0 1,0 2,0 a 1,1 0 1,0 -2,0 M 272.73 62.46 m -0.5, 0 a 0.5,0.5 0 1,0 1,0 a 0.5,0.5 0 1,0 -1,0  M272.73 62.46 L272.73 62.46 260.73 62.46 M266.73 68.46000000000001 L266.73 68.46000000000001 266.73 56.46" id="h2036108234" class="r"></path><path d="M 151.62 135.32999999999998 m -1, 0 a 1,1 0 1,0 2,0 a 1,1 0 1,0 -2,0 M 151.62 135.32999999999998 m -0.5, 0 a 0.5,0.5 0 1,0 1,0 a 0.5,0.5 0 1,0 -1,0  M151.62 135.32999999999998 L151.62 135.32999999999998 163.62 135.32999999999998 M 151.62 141.32999999999998 m -1, 0 a 1,1 0 1,0 2,0 a 1,1 0 1,0 -2,0 M 151.62 141.32999999999998 m -0.5, 0 a 0.5,0.5 0 1,0 1,0 a 0.5,0.5 0 1,0 -1,0  M151.62 141.32999999999998 L151.62 141.32999999999998 158.62 135.32999999999998 151.62 129.32999999999998 M 151.62 129.32999999999998 m -1, 0 a 1,1 0 1,0 2,0 a 1,1 0 1,0 -2,0 M 151.62 129.32999999999998 m -0.5, 0 a 0.5,0.5 0 1,0 1,0 a 0.5,0.5 0 1,0 -1,0  M163.62 135.32999999999998 C 205.47320285102313 135.32999999999998, 214.42520285102313 260, 148.7 260 M 136.7 260 m -1, 0 a 1,1 0 1,0 2,0 a 1,1 0 1,0 -2,0 M 136.7 260 m -0.5, 0 a 0.5,0.5 0 1,0 1,0 a 0.5,0.5 0 1,0 -1,0  M136.7 260 L136.7 260 148.7 260 M142.7 266 L142.7 266 142.7 254" id="h1525043198" class="r"></path><path d="M 658.77 89.09 m -1, 0 a 1,1 0 1,0 2,0 a 1,1 0 1,0 -2,0 M 658.77 89.09 m -0.5, 0 a 0.5,0.5 0 1,0 1,0 a 0.5,0.5 0 1,0 -1,0  M658.77 89.09 L658.77 89.09 670.77 89.09 M 658.77 95.09 m -1, 0 a 1,1 0 1,0 2,0 a 1,1 0 1,0 -2,0 M 658.77 95.09 m -0.5, 0 a 0.5,0.5 0 1,0 1,0 a 0.5,0.5 0 1,0 -1,0  M658.77 95.09 L658.77 95.09 665.77 89.09 658.77 83.09 M 658.77 83.09 m -1, 0 a 1,1 0 1,0 2,0 a 1,1 0 1,0 -2,0 M 658.77 83.09 m -0.5, 0 a 0.5,0.5 0 1,0 1,0 a 0.5,0.5 0 1,0 -1,0  M670.77 89.09 C 720.77 89.09, 721.046 285.73, 670.31 285.73 M 658.31 285.73 m -1, 0 a 1,1 0 1,0 2,0 a 1,1 0 1,0 -2,0 M 658.31 285.73 m -0.5, 0 a 0.5,0.5 0 1,0 1,0 a 0.5,0.5 0 1,0 -1,0  M658.31 285.73 L658.31 285.73 670.31 285.73 M664.31 291.73 L664.31 291.73 664.31 279.73" id="h3016524893" class="r"></path><path d="M 526.18 114.09 m -1, 0 a 1,1 0 1,0 2,0 a 1,1 0 1,0 -2,0 M 526.18 114.09 m -0.5, 0 a 0.5,0.5 0 1,0 1,0 a 0.5,0.5 0 1,0 -1,0  M526.18 114.09 L526.18 114.09 514.18 114.09 M 526.18 120.09 m -1, 0 a 1,1 0 1,0 2,0 a 1,1 0 1,0 -2,0 M 526.18 120.09 m -0.5, 0 a 0.5,0.5 0 1,0 1,0 a 0.5,0.5 0 1,0 -1,0  M526.18 120.09 L526.18 120.09 519.18 114.09 526.18 108.09 M 526.18 108.09 m -1, 0 a 1,1 0 1,0 2,0 a 1,1 0 1,0 -2,0 M 526.18 108.09 m -0.5, 0 a 0.5,0.5 0 1,0 1,0 a 0.5,0.5 0 1,0 -1,0  M514.18 114.09 Q 490.33 114.09, 466.48 88.28 T 418.77 62.46 M 406.77 62.46 m -1, 0 a 1,1 0 1,0 2,0 a 1,1 0 1,0 -2,0 M 406.77 62.46 m -0.5, 0 a 0.5,0.5 0 1,0 1,0 a 0.5,0.5 0 1,0 -1,0  M406.77 62.46 L406.77 62.46 418.77 62.46 M412.77 68.46000000000001 L412.77 68.46000000000001 412.77 56.46" id="h2555307750" class="r"></path><path d="M 514.27 410.73 m -1, 0 a 1,1 0 1,0 2,0 a 1,1 0 1,0 -2,0 M 514.27 410.73 m -0.5, 0 a 0.5,0.5 0 1,0 1,0 a 0.5,0.5 0 1,0 -1,0  M514.27 410.73 L514.27 410.73 502.27 410.73 M 514.27 416.73 m -1, 0 a 1,1 0 1,0 2,0 a 1,1 0 1,0 -2,0 M 514.27 416.73 m -0.5, 0 a 0.5,0.5 0 1,0 1,0 a 0.5,0.5 0 1,0 -1,0  M514.27 416.73 L514.27 416.73 507.27 410.73 514.27 404.73 M 514.27 404.73 m -1, 0 a 1,1 0 1,0 2,0 a 1,1 0 1,0 -2,0 M 514.27 404.73 m -0.5, 0 a 0.5,0.5 0 1,0 1,0 a 0.5,0.5 0 1,0 -1,0  M502.27 410.73 Q 481.38 410.73, 460.49 433.87 T 418.71 457 M 406.71 457 m -1, 0 a 1,1 0 1,0 2,0 a 1,1 0 1,0 -2,0 M 406.71 457 m -0.5, 0 a 0.5,0.5 0 1,0 1,0 a 0.5,0.5 0 1,0 -1,0  M406.71 457 L406.71 457 418.71 457 M412.71 463 L412.71 463 412.71 451" id="h2313911408" class="r"></path><path d="M 401.09 285.82 m -1, 0 a 1,1 0 1,0 2,0 a 1,1 0 1,0 -2,0 M 401.09 285.82 m -0.5, 0 a 0.5,0.5 0 1,0 1,0 a 0.5,0.5 0 1,0 -1,0  M401.09 285.82 L401.09 285.82 413.09 285.82 M 401.09 291.82 m -1, 0 a 1,1 0 1,0 2,0 a 1,1 0 1,0 -2,0 M 401.09 291.82 m -0.5, 0 a 0.5,0.5 0 1,0 1,0 a 0.5,0.5 0 1,0 -1,0  M401.09 291.82 L401.09 291.82 408.09 285.82 401.09 279.82 M 401.09 279.82 m -1, 0 a 1,1 0 1,0 2,0 a 1,1 0 1,0 -2,0 M 401.09 279.82 m -0.5, 0 a 0.5,0.5 0 1,0 1,0 a 0.5,0.5 0 1,0 -1,0  M413.09 285.82 Q 435.39 285.82, 457.68 285.77 T 502.27 285.73 M 514.27 285.73 m -1, 0 a 1,1 0 1,0 2,0 a 1,1 0 1,0 -2,0 M 514.27 285.73 m -0.5, 0 a 0.5,0.5 0 1,0 1,0 a 0.5,0.5 0 1,0 -1,0  M514.27 285.73 L514.27 285.73 502.27 285.73 M508.27 291.73 L508.27 291.73 508.27 279.73" id="h1614346022" class="r"></path><path d="M 271.73 310.82 m -1, 0 a 1,1 0 1,0 2,0 a 1,1 0 1,0 -2,0 M 271.73 310.82 m -0.5, 0 a 0.5,0.5 0 1,0 1,0 a 0.5,0.5 0 1,0 -1,0  M271.73 310.82 L271.73 310.82 259.73 310.82 M 271.73 316.82 m -1, 0 a 1,1 0 1,0 2,0 a 1,1 0 1,0 -2,0 M 271.73 316.82 m -0.5, 0 a 0.5,0.5 0 1,0 1,0 a 0.5,0.5 0 1,0 -1,0  M271.73 316.82 L271.73 316.82 264.73 310.82 271.73 304.82 M 271.73 304.82 m -1, 0 a 1,1 0 1,0 2,0 a 1,1 0 1,0 -2,0 M 271.73 304.82 m -0.5, 0 a 0.5,0.5 0 1,0 1,0 a 0.5,0.5 0 1,0 -1,0  M259.73 310.82 Q 232.52 310.82, 205.31 355.96 T 150.89 401.09 M 138.89 401.09 m -1, 0 a 1,1 0 1,0 2,0 a 1,1 0 1,0 -2,0 M 138.89 401.09 m -0.5, 0 a 0.5,0.5 0 1,0 1,0 a 0.5,0.5 0 1,0 -1,0  M138.89 401.09 L138.89 401.09 150.89 401.09 M144.89 407.09 L144.89 407.09 144.89 395.09" id="h3136039752" class="r"></path></g><g class="hrs"></g><g class="ts"><svg width="134.04" height="175" x="272.73" y="5.46" id="h2948373614" class="t"><rect height="40" width="134.04" class="th"></rect><text x="13" y="25" class="tht">users</text><rect height="135" width="134.04" class="t-bg"></rect><text x="13" y="61" class="tf pk">user_id<tspan x="121.03999999999999" class="ty">bigint</tspan></text><path d="M7,14A2,2 0 0,1 5,12A2,2 0 0,1 7,10A2,2 0 0,1 9,12A2,2 0 0,1 7,14M12.65,10C11.83,7.67 9.61,6 7, 6A6, 6 0 0, 0 1, 12A6, 6 0 0, 0 7, 18C9.61, 18 11.83, 16.33 12.65, 14H17V18H21V14H23V10H12.65Z" class="i pk" transform="translate(72.35249999999999, 48) scale(0.65)"></path><text x="13" y="86" class="tf">login<tspan x="121.03999999999999" class="ty">varchar</tspan></text><text x="13" y="111" class="tf">name<tspan x="121.03999999999999" class="ty">varchar</tspan></text><text x="13" y="136" class="tf">email<tspan x="121.03999999999999" class="ty">varchar</tspan></text><text x="13" y="161" class="tf">birthday<tspan x="121.03999999999999" class="ty">date</tspan></text></svg><svg width="162.73" height="150" x="-11.11" y="3.33" id="h3152839263" class="t"><rect height="40" width="162.73" class="th"></rect><text x="13" y="25" class="tht">users_friends</text><rect height="110" width="162.73" class="t-bg"></rect><text x="13" y="61" class="tf pk">friendship_id<tspan x="149.73" class="ty">bigint</tspan></text><path d="M7,14A2,2 0 0,1 5,12A2,2 0 0,1 7,10A2,2 0 0,1 9,12A2,2 0 0,1 7,14M12.65,10C11.83,7.67 9.61,6 7, 6A6, 6 0 0, 0 1, 12A6, 6 0 0, 0 7, 18C9.61, 18 11.83, 16.33 12.65, 14H17V18H21V14H23V10H12.65Z" class="i pk" transform="translate(101.04249999999999, 48) scale(0.65)"></path><text x="13" y="86" class="tf fk">user_id<tspan x="149.73" class="ty">bigint</tspan></text><path d="M22,18V22H18V19H15V16H12L9.74,13.74C9.19,13.91 8.61,14 8,14A6,6 0 0,1 2,8A6,6 0 0,1 8,2A6,6 0 0,1 14,8C14,8.61 13.91, 9.19 13.74, 9.74L22, 18M7, 5A2, 2 0 0, 0 5, 7A2, 2 0 0, 0 7, 9A2, 2 0 0, 0 9, 7A2, 2 0 0, 0 7, 5Z" class="i uq" transform="translate(105.04249999999999, 75.5) scale(0.5)"></path><text x="13" y="111" class="tf fk">friend_id<tspan x="149.73" class="ty">bigint</tspan></text><path d="M22,18V22H18V19H15V16H12L9.74,13.74C9.19,13.91 8.61,14 8,14A6,6 0 0,1 2,8A6,6 0 0,1 8,2A6,6 0 0,1 14,8C14,8.61 13.91, 9.19 13.74, 9.74L22, 18M7, 5A2, 2 0 0, 0 5, 7A2, 2 0 0, 0 7, 9A2, 2 0 0, 0 9, 7A2, 2 0 0, 0 7, 5Z" class="i uq" transform="translate(105.04249999999999, 100.5) scale(0.5)"></path><text x="13" y="136" class="tf fk">status_id<tspan x="149.73" class="ty">int</tspan></text></svg><svg width="126.7" height="100" x="10" y="203" id="h2422488208" class="t"><rect height="40" width="126.7" class="th"></rect><text x="13" y="25" class="tht">statuses</text><rect height="60" width="126.7" class="t-bg"></rect><text x="13" y="61" class="tf pk">status_id<tspan x="113.7" class="ty">int</tspan></text><path d="M7,14A2,2 0 0,1 5,12A2,2 0 0,1 7,10A2,2 0 0,1 9,12A2,2 0 0,1 7,14M12.65,10C11.83,7.67 9.61,6 7, 6A6, 6 0 0, 0 1, 12A6, 6 0 0, 0 7, 18C9.61, 18 11.83, 16.33 12.65, 14H17V18H21V14H23V10H12.65Z" class="i pk" transform="translate(81.026171875, 48) scale(0.65)"></path><text x="13" y="86" class="tf">name<tspan x="113.7" class="ty">varchar</tspan></text></svg><svg width="132.59" height="125" x="526.18" y="7.09" id="h1051182743" class="t"><rect height="40" width="132.59" class="th"></rect><text x="13" y="25" class="tht">films_users_likes</text><rect height="85" width="132.59" class="t-bg"></rect><text x="13" y="61" class="tf pk">like_id<tspan x="119.59" class="ty">bigint</tspan></text><path d="M7,14A2,2 0 0,1 5,12A2,2 0 0,1 7,10A2,2 0 0,1 9,12A2,2 0 0,1 7,14M12.65,10C11.83,7.67 9.61,6 7, 6A6, 6 0 0, 0 1, 12A6, 6 0 0, 0 7, 18C9.61, 18 11.83, 16.33 12.65, 14H17V18H21V14H23V10H12.65Z" class="i pk" transform="translate(70.9025, 48) scale(0.65)"></path><text x="13" y="86" class="tf fk">film_id<tspan x="119.59" class="ty">bigint</tspan></text><path d="M22,18V22H18V19H15V16H12L9.74,13.74C9.19,13.91 8.61,14 8,14A6,6 0 0,1 2,8A6,6 0 0,1 8,2A6,6 0 0,1 14,8C14,8.61 13.91, 9.19 13.74, 9.74L22, 18M7, 5A2, 2 0 0, 0 5, 7A2, 2 0 0, 0 7, 9A2, 2 0 0, 0 9, 7A2, 2 0 0, 0 7, 5Z" class="i uq" transform="translate(74.9025, 75.5) scale(0.5)"></path><text x="13" y="111" class="tf fk">user_id<tspan x="119.59" class="ty">bigint</tspan></text><path d="M22,18V22H18V19H15V16H12L9.74,13.74C9.19,13.91 8.61,14 8,14A6,6 0 0,1 2,8A6,6 0 0,1 8,2A6,6 0 0,1 14,8C14,8.61 13.91, 9.19 13.74, 9.74L22, 18M7, 5A2, 2 0 0, 0 5, 7A2, 2 0 0, 0 7, 9A2, 2 0 0, 0 9, 7A2, 2 0 0, 0 7, 5Z" class="i uq" transform="translate(74.9025, 100.5) scale(0.5)"></path></svg><svg width="144.04" height="200" x="514.27" y="228.73" id="h907613820" class="t"><rect height="40" width="144.04" class="th"></rect><text x="13" y="25" class="tht">films</text><rect height="160" width="144.04" class="t-bg"></rect><text x="13" y="61" class="tf pk">film_id<tspan x="131.04" class="ty">bigint</tspan></text><path d="M7,14A2,2 0 0,1 5,12A2,2 0 0,1 7,10A2,2 0 0,1 9,12A2,2 0 0,1 7,14M12.65,10C11.83,7.67 9.61,6 7, 6A6, 6 0 0, 0 1, 12A6, 6 0 0, 0 7, 18C9.61, 18 11.83, 16.33 12.65, 14H17V18H21V14H23V10H12.65Z" class="i pk" transform="translate(82.35249999999999, 48) scale(0.65)"></path><text x="13" y="86" class="tf">name<tspan x="131.04" class="ty">varchar</tspan></text><text x="13" y="111" class="tf">description<tspan x="131.04" class="ty">varchar</tspan></text><text x="13" y="136" class="tf">release_date<tspan x="131.04" class="ty">date</tspan></text><text x="13" y="161" class="tf">duration<tspan x="131.04" class="ty">int</tspan></text><text x="13" y="186" class="tf fk">rating<tspan x="131.04" class="ty">int</tspan></text></svg><svg width="124.71" height="100" x="282" y="400" id="h1129032390" class="t"><rect height="40" width="124.71" class="th"></rect><text x="13" y="25" class="tht">ratings</text><rect height="60" width="124.71" class="t-bg"></rect><text x="13" y="61" class="tf pk">rating_id<tspan x="111.71" class="ty">int</tspan></text><path d="M7,14A2,2 0 0,1 5,12A2,2 0 0,1 7,10A2,2 0 0,1 9,12A2,2 0 0,1 7,14M12.65,10C11.83,7.67 9.61,6 7, 6A6, 6 0 0, 0 1, 12A6, 6 0 0, 0 7, 18C9.61, 18 11.83, 16.33 12.65, 14H17V18H21V14H23V10H12.65Z" class="i pk" transform="translate(79.036171875, 48) scale(0.65)"></path><text x="13" y="86" class="tf">name<tspan x="111.71" class="ty">varchar</tspan></text></svg><svg width="140.71" height="100" x="-1.82" y="344.09" id="h2129794260" class="t"><rect height="40" width="140.71" class="th"></rect><text x="13" y="25" class="tht">categories</text><rect height="60" width="140.71" class="t-bg"></rect><text x="13" y="61" class="tf pk">category_id<tspan x="127.71000000000001" class="ty">int</tspan></text><path d="M7,14A2,2 0 0,1 5,12A2,2 0 0,1 7,10A2,2 0 0,1 9,12A2,2 0 0,1 7,14M12.65,10C11.83,7.67 9.61,6 7, 6A6, 6 0 0, 0 1, 12A6, 6 0 0, 0 7, 18C9.61, 18 11.83, 16.33 12.65, 14H17V18H21V14H23V10H12.65Z" class="i pk" transform="translate(95.03617187500001, 48) scale(0.65)"></path><text x="13" y="86" class="tf">name<tspan x="127.71000000000001" class="ty">varchar</tspan></text></svg><svg width="129.36" height="100" x="271.73" y="228.82" id="h1864890301" class="t"><rect height="40" width="129.36" class="th"></rect><text x="13" y="25" class="tht">films_categories</text><rect height="60" width="129.36" class="t-bg"></rect><text x="13" y="61" class="tf pk">film_id<tspan x="116.36000000000001" class="ty">bigint</tspan></text><path d="M7,14A2,2 0 0,1 5,12A2,2 0 0,1 7,10A2,2 0 0,1 9,12A2,2 0 0,1 7,14M12.65,10C11.83,7.67 9.61,6 7, 6A6, 6 0 0, 0 1, 12A6, 6 0 0, 0 7, 18C9.61, 18 11.83, 16.33 12.65, 14H17V18H21V14H23V10H12.65Z" class="i pk" transform="translate(67.67250000000001, 48) scale(0.65)"></path><text x="13" y="86" class="tf fk">category_id<tspan x="116.36000000000001" class="ty">int</tspan></text></svg></g></g><text class="qdbd-link" x="10" y="20">www.quickdatabasediagrams.com</text></svg>